<svg id="btn_unit_sel" xmlns="http://www.w3.org/2000/svg" width="24" height="24" viewBox="0 0 24 24">
  <rect id="사각형_1200" data-name="사각형 1200" width="24" height="24" fill="none"/>
  <path id="패스_172" data-name="패스 172" d="M804.025,210.973h-7.088a2.665,2.665,0,0,0,.7,1.9,2.249,2.249,0,0,0,1.607.611,2.337,2.337,0,0,0,1.423-.419,1.852,1.852,0,0,0,.723-1.135h2.6a4.16,4.16,0,0,1-.82,1.816,4.288,4.288,0,0,1-1.616,1.257,5.533,5.533,0,0,1-4.705-.148,4.243,4.243,0,0,1-1.711-1.72,6.02,6.02,0,0,1,0-5.281,4.171,4.171,0,0,1,1.711-1.72,5.212,5.212,0,0,1,2.515-.594,5.093,5.093,0,0,1,2.505.594,4.185,4.185,0,0,1,1.658,1.632,4.73,4.73,0,0,1,.585,2.366A4.582,4.582,0,0,1,804.025,210.973Zm-3.012-2.88a2.36,2.36,0,0,0-1.649-.612,2.417,2.417,0,0,0-1.677.612,2.5,2.5,0,0,0-.75,1.8h4.7A2.164,2.164,0,0,0,801.013,208.093Z" transform="translate(-789.528 -196.007)" fill="#bb7676"/>
  <path id="패스_173" data-name="패스 173" d="M806.556,202.561a.789.789,0,0,0-.159-.523.609.609,0,0,0-.5-.19q-.7,0-.742.954h-.968a1.86,1.86,0,0,1,.537-1.339,1.767,1.767,0,0,1,1.251-.456,1.637,1.637,0,0,1,1.184.4,1.412,1.412,0,0,1,.413,1.063,2.065,2.065,0,0,1-.308,1.05,4.237,4.237,0,0,1-.78.969,6.157,6.157,0,0,1-1,.759h2.185v.813h-3.513v-.742Q806.556,203.658,806.556,202.561Z" transform="translate(-789.528 -196.007)" fill="#bb7676"/>
</svg>
