<svg id="btn_screenshot" xmlns="http://www.w3.org/2000/svg" width="24" height="24" viewBox="0 0 24 24">
  <rect id="Rectangle_1270" data-name="Rectangle 1270" width="24" height="24" fill="none"/>
  <g id="Group_364" data-name="Group 364" transform="translate(-544.902 -195.284)">
    <g id="Layer_1" data-name="Layer 1">
      <g id="Group_362" data-name="Group 362">
        <path id="Path_193" data-name="Path 193" d="M565.9,203.5v-1.212a2,2,0,0,0-2-2h-1" fill="none" stroke="#1c1c1c" stroke-width="1.5"/>
        <path id="Path_194" data-name="Path 194" d="M551.9,200.284h-1a2,2,0,0,0-2,2V203.5" fill="none" stroke="#1c1c1c" stroke-width="1.5"/>
        <path id="Path_195" data-name="Path 195" d="M562.9,215.708h1a2,2,0,0,0,2-2V212.5" fill="none" stroke="#1c1c1c" stroke-width="1.5"/>
        <path id="Path_196" data-name="Path 196" d="M548.9,212.5v1.212a2,2,0,0,0,2,2h1" fill="none" stroke="#1c1c1c" stroke-width="1.5"/>
      </g>
    </g>
    <g id="Layer_2" data-name="Layer 2">
      <g id="Group_363" data-name="Group 363">
        <circle id="Ellipse_2" data-name="Ellipse 2" cx="1.623" cy="1.623" r="1.623" transform="translate(555.779 206.807)" fill="none" stroke="#1c1c1c" stroke-width="1.5"/>
        <path id="Path_197" data-name="Path 197" d="M561.574,204.372H559.9v-1.01h-5v1.01h-1.673a1.492,1.492,0,0,0-1.491,1.491V211a1.492,1.492,0,0,0,1.491,1.491h8.345A1.492,1.492,0,0,0,563.066,211v-5.135A1.492,1.492,0,0,0,561.574,204.372Z" fill="none" stroke="#1c1c1c" stroke-width="1.5"/>
      </g>
    </g>
  </g>
</svg>
