<svg id="icon_google" xmlns="http://www.w3.org/2000/svg" width="24" height="24" viewBox="0 0 24 24">
  <rect id="Rectangle_1189" data-name="Rectangle 1189" width="24" height="24" fill="none"/>
  <g id="Group_298" data-name="Group 298" transform="translate(-654.855 -129.387)">
    <path id="Path_155" data-name="Path 155" d="M667.608,137.488a4.258,4.258,0,0,1,2.817,1.034s2.242-2.238,2.237-2.243a7.756,7.756,0,0,0-12.014,2.388l2.591,1.959A4.6,4.6,0,0,1,667.608,137.488Z" fill="#ea4335"/>
    <path id="Path_156" data-name="Path 156" d="M667.608,146.689a4.568,4.568,0,0,1-4.385-3.2l-2.587,2.026a7.712,7.712,0,0,0,6.9,4.323,7.346,7.346,0,0,0,5.1-1.935l-2.452-1.921A4.682,4.682,0,0,1,667.608,146.689Z" fill="#34a853"/>
    <path id="Path_157" data-name="Path 157" d="M673.243,147.258A7.891,7.891,0,0,0,675,142.192a8,8,0,0,0-.155-1.5h-7.237v2.946h4.2a3.783,3.783,0,0,1-1.623,2.341l2.452,1.921A7.16,7.16,0,0,0,673.243,147.258Z" fill="#4285f4"/>
    <path id="Path_158" data-name="Path 158" d="M663.008,142.063a4.553,4.553,0,0,1,.231-1.437l-2.591-1.959a7.933,7.933,0,0,0-.793,3.473,7.635,7.635,0,0,0,.781,3.373l2.587-2.026A4.75,4.75,0,0,1,663.008,142.063Z" fill="#fbbc05"/>
  </g>
</svg>
