<svg width="135" height="105" viewBox="0 0 135 105" fill="none" xmlns="http://www.w3.org/2000/svg">
<path d="M103.335 13.6131H95.6226C95.3454 13.6163 95.0745 13.5308 94.8493 13.3691C94.6242 13.2074 94.4566 12.978 94.3711 12.7143C94.2855 12.4507 94.2865 12.1666 94.3738 11.9035C94.4612 11.6405 94.6303 11.4122 94.8565 11.2521C94.8565 11.2521 99.5316 7.86407 100.228 7.37207C100.562 7.17393 100.835 6.88764 101.017 6.54456C101.199 6.20148 101.283 5.81485 101.261 5.42706C101.269 5.17765 101.225 4.92925 101.131 4.69803C101.037 4.46681 100.896 4.25796 100.716 4.08508C100.545 3.92097 100.342 3.79406 100.12 3.71247C99.8976 3.63087 99.6608 3.59634 99.4246 3.61106C98.9612 3.66365 98.5348 3.88919 98.2306 4.24256C97.9264 4.59592 97.7667 5.05108 97.7836 5.51706H95.1726C95.1486 4.37977 95.5627 3.2768 96.3292 2.43625C97.0957 1.5957 98.1559 1.08189 99.2906 1.00107C99.88 0.96956 100.47 1.05845 101.024 1.26233C101.578 1.46621 102.084 1.78079 102.513 2.18689C102.941 2.593 103.282 3.0821 103.515 3.62439C103.748 4.16668 103.869 4.75079 103.869 5.34107C103.911 6.16102 103.736 6.97761 103.361 7.70825C102.987 8.43889 102.426 9.05769 101.736 9.50208C101.468 9.69108 100.608 10.3091 99.6526 11.0021H103.336L103.335 13.6131Z" fill="#161615"/>
<path d="M39.4587 57.2441L37.5587 50.5441L38.5117 53.8911L37.5547 50.5441C37.8407 50.4641 66.1777 42.0831 86.2617 14.6151L91.8817 18.7241C70.3247 48.2031 40.7087 56.8901 39.4587 57.2441Z" fill="#161615"/>
<path d="M90.433 53.6471C89.9313 53.6481 89.4301 53.6147 88.933 53.5471C81.26 52.5141 76.933 44.0151 72.744 35.7971C69.255 28.9441 65.644 21.8601 61.139 21.0301C52.013 19.3541 45.077 24.9111 38.953 29.8141C36.096 32.1031 33.629 34.0781 31.136 35.0991L28.501 28.6531C30.063 28.0151 32.268 26.2531 34.601 24.3811C41.162 19.1291 50.142 11.9341 62.393 14.1811C70.293 15.6321 74.693 24.2751 78.947 32.6351C82.317 39.2541 85.804 46.1001 89.86 46.6481C92.534 47.0061 96.32 44.6321 100.76 39.7661L105.907 44.4531C100.286 50.6251 95.204 53.6471 90.433 53.6471Z" fill="#161615"/>
<path d="M7.5928 70.6601C9.06678 70.5934 10.5248 70.9883 11.7637 71.7898C13.0025 72.5912 13.9604 73.7593 14.5038 75.1311H11.5718C11.2132 74.3927 10.6438 73.7772 9.93567 73.3621C9.2275 72.9471 8.41224 72.7511 7.5928 72.7991C4.6408 72.7991 2.50182 74.8991 2.50182 78.2541C2.50182 81.6091 4.6408 83.7321 7.5928 83.7321C8.41224 83.78 9.2275 83.584 9.93567 83.169C10.6438 82.7539 11.2132 82.1384 11.5718 81.4001H14.5038C13.959 82.7692 13 83.934 11.761 84.7316C10.5219 85.5293 9.06468 85.9199 7.5928 85.8491C5.59371 85.8261 3.68429 85.0159 2.27876 83.5941C0.873232 82.1724 0.0849609 80.2538 0.0849609 78.2546C0.0849609 76.2553 0.873232 74.3367 2.27876 72.915C3.68429 71.4932 5.59371 70.683 7.5928 70.6601V70.6601Z" fill="#161615"/>
<path d="M27.8492 79.216H20.8492V85.716H18.4102V70.8521H20.8492V77.226H27.8492V70.8521H30.2881V85.72H27.8492V79.216Z" fill="#161615"/>
<path d="M34.5635 70.8521H37.0015V85.72H34.5635V70.8521Z" fill="#161615"/>
<path d="M52.8128 85.871C49.8378 85.871 47.5488 84.243 47.5488 81.614H50.1608C50.1837 81.9351 50.2713 82.2484 50.4185 82.5347C50.5656 82.8211 50.7693 83.0747 51.0171 83.2803C51.2649 83.4858 51.5517 83.6391 51.8604 83.7308C52.169 83.8226 52.493 83.8509 52.8128 83.814C54.5238 83.814 55.4868 82.894 55.4868 81.632C55.4868 78.032 47.5868 80.368 47.5868 74.892C47.5868 72.282 49.6618 70.657 52.7008 70.657C55.5458 70.657 57.5568 72.157 57.7708 74.7H55.0708C54.9821 74.1157 54.6743 73.5872 54.2099 73.2217C53.7456 72.8562 53.1596 72.6811 52.5708 72.732C51.1588 72.689 50.0708 73.374 50.0708 74.807C50.0708 78.165 57.9428 76.069 57.9428 81.507C57.9468 83.732 56.1288 85.871 52.8128 85.871Z" fill="#161615"/>
<path d="M72.9404 84.63L76.5125 88.416H73.4124L70.8024 85.592C70.1125 85.7844 69.3987 85.8781 68.6824 85.87C66.8986 85.8373 65.1856 85.1663 63.8541 83.9788C62.5226 82.7913 61.6607 81.166 61.4249 79.3975C61.189 77.629 61.5948 75.8346 62.5685 74.3396C63.5423 72.8447 65.0196 71.7483 66.7325 71.2492C68.4454 70.75 70.2804 70.8813 71.9048 71.6192C73.5291 72.3571 74.8353 73.6527 75.5863 75.2711C76.3373 76.8895 76.4834 78.7234 75.9982 80.4402C75.5129 82.1571 74.4285 83.6432 72.9415 84.629L72.9404 84.63ZM68.6814 83.751C71.6354 83.751 73.7744 81.614 73.7744 78.251C73.7744 74.888 71.6354 72.796 68.6814 72.796C65.7274 72.796 63.5904 74.896 63.5904 78.251C63.5904 81.606 65.7314 83.751 68.6824 83.751H68.6814Z" fill="#161615"/>
<path d="M79.7842 70.8521H82.2232V80.332C82.2232 81.2258 82.5782 82.083 83.2102 82.715C83.8422 83.347 84.6994 83.702 85.5932 83.702C86.487 83.702 87.3441 83.347 87.9761 82.715C88.6081 82.083 88.9632 81.2258 88.9632 80.332V70.8521H91.4022V80.285C91.4022 84.073 88.6642 85.87 85.5622 85.87C82.4372 85.87 79.7852 84.07 79.7852 80.285L79.7842 70.8521Z" fill="#161615"/>
<path d="M104.598 82.6841H98.3728L97.3028 85.7211H94.7578L100.084 70.8311H102.908L108.236 85.7211H105.667L104.598 82.6841ZM101.498 73.7841L99.0588 80.6911H103.915L101.498 73.7841Z" fill="#161615"/>
<path d="M116.748 70.8521C120.277 70.8521 122.01 72.884 122.01 75.301C122.034 76.3037 121.701 77.2822 121.07 78.062C120.439 78.8417 119.552 79.372 118.566 79.558L122.245 85.72H119.336L115.914 79.773H114.051V85.72H111.614V70.8521H116.748ZM116.748 72.841H114.048V77.832H116.748C118.648 77.832 119.507 76.784 119.507 75.306C119.507 73.804 118.652 72.841 116.748 72.841Z" fill="#161615"/>
<path d="M134.416 72.822H128.639V77.188H133.775V79.175H128.639V83.733H134.416V85.722H126.202V70.832H134.416V72.822Z" fill="#161615"/>
<path d="M18.5985 102.966H23.1835V104.01H17.3145V94.339H18.5975L18.5985 102.966Z" fill="#161615"/>
<path d="M32.8337 101.479H28.7797L27.8697 104.011H26.5557L30.2477 94.339H31.3637L35.0637 104.015H33.7557L32.8337 101.479ZM29.1647 100.437H32.4557L30.8067 95.908L29.1647 100.437Z" fill="#161615"/>
<path d="M39.0918 104.01V94.339H42.2558C43.0969 94.2767 43.9337 94.5066 44.6248 94.99C44.8979 95.2276 45.1122 95.5252 45.251 95.8596C45.3898 96.1939 45.4493 96.5558 45.4248 96.917C45.4313 97.3484 45.2961 97.77 45.0398 98.117C44.7685 98.4753 44.4058 98.7541 43.9898 98.924C44.4862 99.0518 44.9236 99.3462 45.2288 99.758C45.5369 100.184 45.6967 100.699 45.6838 101.224C45.7034 101.607 45.6378 101.989 45.4919 102.343C45.3459 102.697 45.1232 103.014 44.8398 103.272C44.1635 103.806 43.3136 104.07 42.4538 104.015L39.0918 104.01ZM40.3678 98.46H42.2968C42.7794 98.4853 43.255 98.3362 43.6368 98.04C43.8017 97.9012 43.9325 97.7265 44.0192 97.5292C44.1059 97.3319 44.1461 97.1173 44.1368 96.902C44.1563 96.6852 44.1243 96.4669 44.0435 96.2648C43.9627 96.0628 43.8353 95.8826 43.6718 95.739C43.2522 95.4663 42.7549 95.3385 42.2558 95.375H40.3678V98.46ZM40.3678 99.483V102.966H42.4758C42.9857 102.994 43.4876 102.83 43.8818 102.505C44.0552 102.343 44.1911 102.146 44.2801 101.926C44.369 101.706 44.4089 101.47 44.3968 101.233C44.3968 100.066 43.7635 99.483 42.4968 99.483H40.3678Z" fill="#161615"/>
<path d="M59.5894 102.315L62.3504 94.339H63.7444L60.1564 104.015H59.0264L55.4434 94.339H56.8334L59.5894 102.315Z" fill="#161615"/>
<path d="M69.1334 104.01H67.8574V94.339H69.1334V104.01Z" fill="#161615"/>
<path d="M79.6575 99.539H75.4645V102.967H80.3355V104.011H74.1865V94.339H80.2695V95.381H75.4645V98.5H79.6575V99.539Z" fill="#161615"/>
<path d="M86.7347 100.959L86.9217 102.235L87.1937 101.088L89.1077 94.339H90.1847L92.0517 101.093L92.3177 102.262L92.5237 100.962L94.0277 94.339H95.3087L92.9637 104.015H91.8007L89.8007 96.962L89.6487 96.227L89.4947 96.962L87.4277 104.015H86.2647L83.9277 94.339H85.2037L86.7347 100.959Z" fill="#161615"/>
<path d="M104.918 99.539H100.723V102.967H105.594V104.011H99.4473V94.339H105.528V95.381H100.723V98.5H104.918V99.539Z" fill="#161615"/>
<path d="M113.455 100.096H111.182V104.01H109.9V94.339H113.1C114.001 94.2793 114.893 94.5436 115.616 95.084C115.918 95.3547 116.153 95.6904 116.306 96.0656C116.459 96.4408 116.524 96.8458 116.497 97.25C116.509 97.8142 116.337 98.367 116.007 98.8249C115.663 99.2847 115.191 99.6326 114.65 99.8249L116.921 103.932V104.012H115.552L113.455 100.096ZM111.182 99.054H113.142C113.69 99.0825 114.228 98.9064 114.653 98.56C114.839 98.396 114.986 98.1926 115.083 97.9645C115.181 97.7365 115.226 97.4897 115.215 97.242C115.232 96.987 115.192 96.7316 115.1 96.4934C115.008 96.2552 114.864 96.0401 114.68 95.8629C114.242 95.5168 113.692 95.3439 113.134 95.377H111.182V99.054Z" fill="#161615"/>
</svg>
