<svg xmlns="http://www.w3.org/2000/svg" width="120" height="100" viewBox="0 0 120 100">
    <path data-name="Rectangle 710" style="fill:none" d="M0 0h120v100H0z"/>
    <path data-name="Path 7" d="M0 242.356h1.906l4.978 11.123 4.978-11.123h1.886v13.455h-1.77v-10.033l-4.472 10.034H6.261L1.77 245.759v10.053H0z" transform="translate(6 -158.545)" style="fill:#2e2e2d"/>
    <path data-name="Path 8" d="M52.255 239.538a1.186 1.186 0 1 1 1.205 1.206 1.187 1.187 0 0 1-1.205-1.206m.292 2.936h1.77v10.656h-1.77z" transform="translate(-28.831 -155.863)" style="fill:#2e2e2d"/>
    <path data-name="Path 9" d="M81.806 248.87c0 4.2-2.742 6.747-7.194 6.747h-4.22v-13.552h4.22c4.453 0 7.194 2.605 7.194 6.805m-7.194 5.289c3.539 0 5.386-1.983 5.386-5.289s-1.848-5.37-5.386-5.37h-2.45v10.655z" transform="translate(-40.921 -158.351)" style="fill:#2e2e2d"/>
    <path data-name="Path 10" d="M120.841 252.759h-5.911l-1.089 3.014h-1.867l4.9-13.475h2.042l4.881 13.475h-1.867zm-2.956-8.283-2.45 6.845h4.9z" transform="translate(-68.637 -158.506)" style="fill:#2e2e2d"/>
    <path data-name="Path 11" d="M160.284 255.4c-2.723 0-4.647-1.516-4.686-3.753h1.886a2.51 2.51 0 0 0 2.8 2.255c1.711 0 2.722-.972 2.722-2.255 0-3.656-7.331-1.322-7.331-6.359 0-2.236 1.809-3.752 4.492-3.752 2.586 0 4.278 1.419 4.492 3.48h-1.945a2.455 2.455 0 0 0-2.625-1.964c-1.458-.039-2.605.719-2.605 2.178 0 3.5 7.311 1.322 7.311 6.339 0 1.925-1.575 3.831-4.511 3.831" transform="translate(-97.716 -158.002)" style="fill:#2e2e2d"/>
    <path data-name="Path 12" d="M221.073 249.473h-6.9v6.145H212.4v-13.553h1.77v5.95h6.9v-5.95h1.769v13.553h-1.769z" transform="translate(-135.578 -158.351)" style="fill:#2e2e2d"/>
    <path data-name="Path 13" d="M260.459 244.418a1.549 1.549 0 0 0-1.653-1.712 1.574 1.574 0 0 0-1.731 1.556c0 .8.447 1.458 1.4 2.47l4.044 4.063c.117-.175.233-.349.35-.544l1.322-2.217h1.909l-1.6 2.766c-.253.447-.505.836-.778 1.226l3.053 3.052h-2.314l-1.77-1.789a6.072 6.072 0 0 1-4.667 2.022c-2.819 0-4.744-1.613-4.744-4.122a4.431 4.431 0 0 1 3.189-4.2 3.891 3.891 0 0 1-1.167-2.722c0-1.731 1.381-3.014 3.578-3.014 2.139 0 3.442 1.361 3.344 3.169zm1.069 7.7-3.986-4.006c-1.692.642-2.489 1.653-2.489 3.014a2.729 2.729 0 0 0 2.975 2.664 4.451 4.451 0 0 0 3.5-1.672" transform="translate(-162.829 -157.807)" style="fill:#2e2e2d"/>
    <path data-name="Path 14" d="M299.124 242.065h9.176v1.435h-3.695v12.114h-1.77V243.5h-3.714z" transform="translate(-193.384 -158.351)" style="fill:#2e2e2d"/>
    <path data-name="Rectangle 716" transform="translate(6 3)" style="fill:none" d="M0 0h108.917v94.5H0z"/>
    <path data-name="Rectangle 717" transform="translate(6 3)" style="fill:none" d="M0 0h108.917v94.5H0z"/>
    <g data-name="Group 91">
        <path data-name="Path 15" d="M.273 72.781a1.432 1.432 0 0 1 1.266-.768h19.494L10.4 55.243.3 72.731c-.009.016-.014.034-.023.05" transform="translate(29.897 -17.915)" style="fill:#f9962c"/>
        <path data-name="Path 16" d="M44.911 99.936a1.424 1.424 0 0 1 .213.852c0-.028.011-.054.011-.083V82.231H33.681z" transform="translate(17.248 -28.133)" style="fill:#f9962c"/>
        <path data-name="Path 17" d="M81.014 83.294a1.437 1.437 0 0 0-1.387-1.063h-27.95v18.475c0 .029-.009.055-.011.083a1.444 1.444 0 0 1-.019.146 1.406 1.406 0 0 1-.076.283c-.017.045-.033.088-.054.131a1.447 1.447 0 0 1-.207.3c-.013.015-.019.033-.032.047l-.011.01c-.015.015-.033.027-.048.041a1.442 1.442 0 0 1-.224.172c-.012.007-.021.019-.034.025l29.386-17.035a1.436 1.436 0 0 0 .667-1.615" transform="translate(10.706 -28.133)" style="fill:#fcb168"/>
        <path data-name="Path 18" d="M.028 65.445c.007-.039.011-.077.021-.116 0-.016.012-.031.017-.048.01-.032.022-.064.035-.1a1.536 1.536 0 0 1 .069-.152c.009-.016.013-.034.022-.05l10.1-17.479-7.644-12.055A1.436 1.436 0 0 0 0 36.214v29.518a1.468 1.468 0 0 1 .007-.2c0-.032.011-.062.017-.093" transform="translate(30 -10.167)" style="fill:#fcb168"/>
        <path data-name="Path 19" d="M38.654 51.1V1.437a1.436 1.436 0 0 0-2.68-.719l-19.411 33.61L27.2 51.1z" transform="translate(23.729 3)" style="fill:#fcb168"/>
        <path data-name="Path 20" d="M31.283 102.1c.032-.007.064-.019.1-.029.009 0 .016-.007.025-.01a1.54 1.54 0 0 0 .208-.086c.03-.016.062-.031.091-.05a1.422 1.422 0 0 0 .224-.172c.016-.014.033-.025.048-.041s.028-.039.044-.057a1.457 1.457 0 0 0 .206-.305 1.408 1.408 0 0 0 .055-.13 1.5 1.5 0 0 0 .076-.283c.007-.048.016-.1.019-.147a1.426 1.426 0 0 0-.213-.852l-11.23-17.7H1.439a1.427 1.427 0 0 0-1.335.92c-.012.032-.025.063-.035.1a1.382 1.382 0 0 0-.038.163c-.006.031-.014.062-.017.093a1.327 1.327 0 0 0-.007.2 1.39 1.39 0 0 0 .043.322c0 .017.011.033.016.05a1.413 1.413 0 0 0 .115.276c.016.029.034.056.052.084a1.43 1.43 0 0 0 .15.2c.022.024.043.048.066.071a1.445 1.445 0 0 0 .269.206l29.514 17.027a1.423 1.423 0 0 0 .35.144 1.442 1.442 0 0 0 .367.048 1.458 1.458 0 0 0 .331-.043" transform="translate(29.998 -28.133)" style="fill:#f17700"/>
    </g>
</svg>
