<svg width="203" height="30" viewBox="0 0 203 30" fill="none" xmlns="http://www.w3.org/2000/svg">
<path d="M40.5269 10.4872H36.5599C36.418 10.4872 36.2797 10.4423 36.165 10.3588C36.0502 10.2754 35.9649 10.1577 35.9212 10.0227C35.8776 9.8877 35.8778 9.74232 35.922 9.60748C35.9661 9.47263 36.0518 9.35524 36.1669 9.27218C36.1669 9.27218 38.5669 7.53119 38.9279 7.27719C39.0997 7.17534 39.2403 7.02818 39.3341 6.8518C39.4279 6.67543 39.4714 6.47663 39.4599 6.27719C39.464 6.149 39.4412 6.02137 39.393 5.90252C39.3447 5.78368 39.2721 5.67625 39.1799 5.58718C39.0921 5.50279 38.9877 5.43753 38.8734 5.39553C38.7592 5.35353 38.6374 5.33571 38.5159 5.3432C38.2775 5.37002 38.0581 5.4859 37.9016 5.66763C37.7451 5.84936 37.663 6.0835 37.6719 6.32318H36.3289C36.3169 5.73865 36.5299 5.17188 36.9238 4.73992C37.3178 4.30797 37.8627 4.04387 38.4459 4.00219C38.749 3.98604 39.0523 4.03179 39.3372 4.13665C39.6221 4.24151 39.8827 4.40328 40.103 4.61212C40.3233 4.82095 40.4989 5.07247 40.6188 5.35134C40.7388 5.63022 40.8007 5.9306 40.8009 6.23419C40.8221 6.65615 40.7316 7.07623 40.5384 7.45199C40.3453 7.82775 40.0563 8.14588 39.7009 8.3742C39.5629 8.4742 39.1219 8.78919 38.6309 9.14419H40.5249L40.5269 10.4872Z" fill="white"/>
<path d="M6.63431 26.363L5.65532 22.92L6.14432 24.642L5.65332 22.921C15.6714 19.4248 24.4008 12.986 30.6993 4.44702L33.5893 6.56003C26.8621 15.7835 17.4469 22.7005 6.63431 26.363Z" fill="white"/>
<path d="M32.847 24.5131C32.5895 24.5132 32.3322 24.4959 32.077 24.4611C28.131 23.9301 25.905 19.5611 23.753 15.3331C21.958 11.8091 20.103 8.16606 17.784 7.73906C13.092 6.87706 9.52399 9.73906 6.37599 12.2561C5.16451 13.3394 3.81189 14.2538 2.355 14.9741L1 11.6591C2.12813 11.05 3.18154 10.3117 4.13899 9.45906C7.51299 6.75906 12.131 3.05908 18.431 4.21508C22.49 4.96108 24.754 9.40607 26.943 13.7051C28.677 17.1051 30.47 20.6291 32.556 20.9111C33.931 21.0951 35.878 19.8741 38.156 17.3721L40.802 19.7821C37.914 22.9591 35.301 24.5131 32.847 24.5131Z" fill="white"/>
<path d="M55.2727 9.00008C56.2959 8.95299 57.3083 9.22633 58.1687 9.78203C59.0291 10.3377 59.6947 11.1481 60.0727 12.1001H58.0377C57.7886 11.5874 57.3933 11.16 56.9015 10.8718C56.4098 10.5837 55.8436 10.4477 55.2747 10.4811C54.3144 10.549 53.4157 10.9784 52.7594 11.6828C52.1032 12.3871 51.7384 13.3139 51.7384 14.2766C51.7384 15.2392 52.1032 16.1661 52.7594 16.8704C53.4157 17.5747 54.3144 18.0041 55.2747 18.0721C55.8436 18.1054 56.4098 17.9694 56.9015 17.6813C57.3933 17.3931 57.7886 16.9657 58.0377 16.4531H60.0727C59.6944 17.4041 59.0284 18.2131 58.1678 18.7669C57.3071 19.3208 56.2949 19.5918 55.2727 19.5421C53.8866 19.523 52.5638 18.959 51.5904 17.9721C50.617 16.9852 50.0713 15.6547 50.0713 14.2686C50.0713 12.8824 50.617 11.5519 51.5904 10.5651C52.5638 9.57815 53.8866 9.01416 55.2727 8.99507V9.00008Z" fill="white"/>
<path d="M69.3391 14.942H64.4811V19.459H62.7881V9.13403H64.4811V13.56H69.3391V9.13403H71.0321V19.458H69.3391V14.942Z" fill="white"/>
<path d="M74.002 9.13403H75.695V19.458H74.002V9.13403Z" fill="white"/>
<path d="M86.6716 19.562C84.6056 19.562 83.0166 18.432 83.0166 16.606H84.8286C84.8444 16.8292 84.9053 17.047 85.0075 17.2461C85.1097 17.4452 85.2512 17.6215 85.4234 17.7645C85.5956 17.9075 85.795 18.0141 86.0095 18.0779C86.224 18.1418 86.4492 18.1615 86.6716 18.136C87.8596 18.136 88.5286 17.497 88.5286 16.621C88.5286 14.121 83.0466 15.743 83.0466 11.941C83.0466 10.129 84.4876 9 86.5976 9C88.5726 9 89.9696 10.04 90.1176 11.807H88.2456C88.1839 11.401 87.9698 11.0338 87.6469 10.78C87.3241 10.5263 86.9167 10.405 86.5076 10.441C85.5276 10.411 84.7686 10.887 84.7686 11.882C84.7686 14.214 90.2356 12.758 90.2356 16.531C90.2366 18.08 88.9746 19.562 86.6716 19.562Z" fill="white"/>
<path d="M100.65 18.701L103.131 21.33H100.977L99.1651 19.369C98.686 19.5026 98.1904 19.5676 97.6931 19.562C96.4544 19.5394 95.2649 19.0737 94.3402 18.2493C93.4155 17.4248 92.8169 16.2963 92.653 15.0683C92.4891 13.8404 92.7706 12.5943 93.4467 11.5562C94.1227 10.518 95.1484 9.75659 96.3377 9.40988C97.5271 9.06317 98.8013 9.15419 99.9293 9.66644C101.057 10.1787 101.964 11.0782 102.486 12.2019C103.008 13.3256 103.109 14.599 102.772 15.7912C102.435 16.9834 101.683 18.0154 100.65 18.7V18.701ZM97.6931 18.091C98.4564 18.1468 99.2189 17.9716 99.8813 17.5881C100.544 17.2047 101.075 16.6307 101.407 15.941C101.739 15.2513 101.855 14.4777 101.742 13.7208C101.628 12.9639 101.289 12.2589 100.769 11.6973C100.249 11.1357 99.5715 10.7437 98.8256 10.5721C98.0797 10.4006 97.2994 10.4575 96.5862 10.7355C95.8731 11.0135 95.2602 11.4996 94.8271 12.1307C94.394 12.7618 94.1609 13.5086 94.1581 14.274C94.1137 14.7625 94.1726 15.2549 94.3308 15.7193C94.489 16.1836 94.7431 16.6095 95.0765 16.9693C95.4099 17.3291 95.8152 17.6148 96.2661 17.8079C96.7171 18.0009 97.2036 18.0971 97.6941 18.09L97.6931 18.091Z" fill="white"/>
<path d="M105.4 9.13403H107.093V15.715C107.093 16.3356 107.34 16.9308 107.779 17.3697C108.217 17.8085 108.813 18.055 109.433 18.055C110.054 18.055 110.649 17.8085 111.088 17.3697C111.527 16.9308 111.773 16.3356 111.773 15.715V9.13403H113.466V15.684C113.49 16.2148 113.399 16.7444 113.201 17.2374C113.003 17.7304 112.702 18.1754 112.318 18.5426C111.934 18.9098 111.476 19.1907 110.975 19.3665C110.474 19.5423 109.94 19.609 109.411 19.562C108.884 19.6093 108.353 19.5426 107.854 19.3663C107.354 19.1901 106.899 18.9084 106.518 18.5405C106.138 18.1726 105.841 17.7271 105.648 17.2342C105.455 16.7413 105.37 16.2126 105.399 15.684L105.4 9.13403Z" fill="white"/>
<path d="M122.631 17.3492H118.309L117.566 19.4581H115.799L119.499 9.11914H121.459L125.159 19.4581H123.375L122.631 17.3492ZM120.477 11.1701L118.784 15.9702H122.159L120.477 11.1701Z" fill="white"/>
<path d="M131.068 9.13403C133.519 9.13403 134.722 10.545 134.722 12.223C134.739 12.9192 134.507 13.5987 134.069 14.1401C133.631 14.6815 133.015 15.0498 132.331 15.179L134.886 19.458H132.866L130.49 15.329H129.195V19.458H127.502V9.13403H131.068ZM131.068 10.515H129.195V13.977H131.068C132.39 13.977 132.984 13.249 132.984 12.223C132.984 11.197 132.395 10.515 131.068 10.515Z" fill="white"/>
<path d="M143.337 10.5002H139.323V13.5312H142.889V14.9111H139.323V18.0761H143.335V19.4572H137.635V9.11914H143.335L143.337 10.5002Z" fill="white"/>
<path d="M151.997 19.604H154.355V20.1411H151.337V15.165H151.997V19.604Z" fill="white"/>
<path d="M159.321 18.8391H157.236L156.768 20.1391H156.091L157.991 15.1631H158.565L160.465 20.1391H159.792L159.321 18.8391ZM157.434 18.3031H159.121L158.273 15.9741L157.434 18.3031Z" fill="white"/>
<path d="M162.535 20.1411V15.165H164.162C164.595 15.133 165.025 15.2514 165.38 15.5C165.52 15.6224 165.63 15.7756 165.701 15.9475C165.772 16.1195 165.802 16.3055 165.789 16.4911C165.792 16.7131 165.722 16.9298 165.589 17.108C165.45 17.2923 165.263 17.4357 165.049 17.523C165.304 17.5888 165.529 17.7403 165.686 17.9521C165.845 18.1709 165.927 18.4359 165.92 18.7061C165.93 18.9028 165.897 19.0992 165.821 19.2813C165.746 19.4634 165.632 19.6266 165.486 19.759C165.138 20.033 164.701 20.169 164.259 20.1411H162.535ZM163.191 17.2871H164.182C164.43 17.3004 164.675 17.2237 164.871 17.071C164.956 16.9999 165.024 16.9101 165.068 16.8087C165.113 16.7072 165.134 16.5968 165.129 16.4861C165.14 16.3743 165.123 16.2616 165.082 16.1574C165.04 16.0531 164.975 15.9601 164.89 15.8861C164.674 15.746 164.419 15.6803 164.162 15.699H163.191V17.2871ZM163.191 17.8131V19.604H164.275C164.537 19.6187 164.795 19.5341 164.997 19.367C165.087 19.2842 165.157 19.1826 165.203 19.0696C165.249 18.9566 165.269 18.8349 165.263 18.713C165.263 18.113 164.937 17.8131 164.285 17.8131H163.191Z" fill="white"/>
<path d="M173.074 19.2711L174.495 15.1711H175.213L173.368 20.1471H172.786L170.944 15.1711H171.659L173.074 19.2711Z" fill="white"/>
<path d="M177.984 20.1411H177.328V15.165H177.984V20.1411Z" fill="white"/>
<path d="M183.396 17.841H181.24V19.604H183.745V20.1411H180.583V15.165H183.711V15.701H181.24V17.3011H183.396V17.841Z" fill="white"/>
<path d="M187.035 18.5711L187.135 19.2271L187.275 18.6371L188.259 15.1641H188.813L189.773 18.6371L189.91 19.2371L190.016 18.5671L190.789 15.1671H191.448L190.242 20.1431H189.642L188.616 16.5171L188.538 16.1381L188.459 16.5171L187.396 20.1431H186.796L185.596 15.1671H186.252L187.035 18.5711Z" fill="white"/>
<path d="M196.386 17.841H194.229V19.604H196.734V20.1411H193.573V15.165H196.7V15.701H194.229V17.3011H196.386V17.841Z" fill="white"/>
<path d="M200.776 18.1279H199.607V20.1409H198.948V15.1649H200.595C201.058 15.1342 201.517 15.27 201.889 15.5479C202.044 15.6872 202.165 15.8599 202.244 16.0528C202.322 16.2458 202.356 16.4541 202.342 16.6619C202.348 16.9521 202.26 17.2365 202.09 17.4719C201.913 17.7093 201.669 17.8888 201.39 17.9879L202.559 20.0999V20.1409H201.859L200.776 18.1279ZM199.607 17.5919H200.616C200.898 17.6066 201.175 17.5161 201.393 17.3379C201.489 17.2536 201.564 17.1489 201.614 17.0316C201.664 16.9143 201.688 16.7873 201.682 16.6599C201.691 16.5288 201.671 16.3975 201.623 16.275C201.576 16.1525 201.502 16.0419 201.407 15.9509C201.18 15.7719 200.896 15.6829 200.607 15.7009H199.602L199.607 17.5919Z" fill="white"/>
</svg>
