<svg width="246" height="37" viewBox="0 0 246 37" fill="none" xmlns="http://www.w3.org/2000/svg">
<path d="M49.0184 12.684H44.2184C44.0469 12.6839 43.8798 12.6293 43.7411 12.5283C43.6024 12.4273 43.4993 12.285 43.4466 12.1217C43.3938 11.9584 43.3941 11.7827 43.4475 11.6196C43.5008 11.4565 43.6044 11.3146 43.7434 11.214C43.7434 11.214 46.6494 9.10803 47.0824 8.80103C47.2903 8.67775 47.4603 8.49965 47.5737 8.28623C47.6871 8.0728 47.7396 7.8323 47.7254 7.59103C47.7305 7.43589 47.7029 7.2814 47.6445 7.13757C47.5861 6.99375 47.4982 6.86375 47.3864 6.75601C47.281 6.65349 47.1555 6.57391 47.0178 6.52228C46.8802 6.47065 46.7333 6.44809 46.5864 6.45603C46.2982 6.48837 46.0328 6.62845 45.8434 6.84821C45.6541 7.06796 45.5548 7.35115 45.5654 7.64102H43.9414C43.9271 6.93403 44.1848 6.24853 44.6614 5.72614C45.138 5.20375 45.7971 4.88438 46.5024 4.83402C46.8693 4.81388 47.2363 4.86881 47.5812 4.99545C47.926 5.1221 48.2414 5.3178 48.508 5.57056C48.7746 5.82331 48.9869 6.12781 49.1317 6.46542C49.2766 6.80304 49.351 7.16665 49.3504 7.53403C49.3766 8.04414 49.2676 8.55211 49.0344 9.00656C48.8012 9.46101 48.4521 9.84583 48.0224 10.122C47.8554 10.239 47.3224 10.622 46.7284 11.053H49.0194L49.0184 12.684Z" fill="#1C1C1C"/>
<path d="M8.02489 31.886L6.84088 27.722L7.43188 29.8051L6.83789 27.7231C18.9552 23.4945 29.5138 15.7064 37.1319 5.37805L40.6319 7.93405C32.4941 19.0907 21.1046 27.457 8.02489 31.886Z" fill="#1C1C1C"/>
<path d="M39.73 29.649C39.4186 29.6492 39.1075 29.6281 38.799 29.586C34.026 28.944 31.334 23.657 28.731 18.545C26.56 14.283 24.316 9.87602 21.511 9.36002C15.836 8.31702 11.52 11.774 7.71098 14.823C6.24585 16.1335 4.60998 17.2396 2.84798 18.111L1.20898 14.101C2.57444 13.3658 3.84969 12.4741 5.00899 11.444C9.08999 8.17703 14.675 3.70201 22.295 5.10101C27.204 6.00101 29.943 11.38 32.595 16.579C34.695 20.696 36.861 24.954 39.384 25.295C41.047 25.518 43.402 24.041 46.161 21.015L49.361 23.93C45.858 27.769 42.698 29.649 39.73 29.649Z" fill="#1C1C1C"/>
<path d="M66.854 10.886C68.0913 10.8307 69.315 11.1627 70.3547 11.8358C71.3943 12.5088 72.1981 13.4894 72.6541 14.641H70.195C69.8937 14.021 69.4155 13.5041 68.8207 13.1556C68.2259 12.8072 67.5412 12.6427 66.853 12.683C64.374 12.683 62.577 14.444 62.577 17.264C62.577 20.084 64.377 21.864 66.853 21.864C67.5412 21.9043 68.2259 21.7398 68.8207 21.3914C69.4155 21.0429 69.8937 20.526 70.195 19.906H72.6561C72.1991 21.0555 71.3945 22.0335 70.3546 22.7035C69.3148 23.3735 68.0916 23.702 66.856 23.643C65.1644 23.643 63.542 22.971 62.3458 21.7748C61.1496 20.5786 60.4775 18.9562 60.4775 17.2645C60.4775 15.5728 61.1496 13.9504 62.3458 12.7542C63.542 11.558 65.1644 10.886 66.856 10.886H66.854Z" fill="#1C1C1C"/>
<path d="M83.8674 18.072H77.9914V23.535H75.9434V11.048H77.9914V16.402H83.8674V11.048H85.9154V23.536H83.8674V18.072Z" fill="#1C1C1C"/>
<path d="M89.5059 11.048H91.5539V23.536H89.5059V11.048Z" fill="#1C1C1C"/>
<path d="M104.832 23.666C102.332 23.666 100.411 22.299 100.411 20.091H102.603C102.622 20.361 102.696 20.6243 102.82 20.8651C102.943 21.1059 103.114 21.3191 103.323 21.492C103.531 21.6648 103.772 21.7937 104.031 21.8709C104.291 21.9481 104.563 21.9719 104.832 21.941C106.269 21.941 107.078 21.168 107.078 20.109C107.078 17.089 100.447 19.047 100.447 14.448C100.447 12.256 102.19 10.891 104.747 10.891C107.136 10.891 108.825 12.149 109.005 14.291H106.741C106.667 13.8003 106.408 13.3564 106.018 13.0493C105.628 12.7423 105.136 12.5953 104.641 12.638C103.455 12.602 102.541 13.177 102.541 14.381C102.541 17.202 109.154 15.441 109.154 20.004C109.148 21.866 107.617 23.666 104.832 23.666Z" fill="#1C1C1C"/>
<path d="M121.737 22.6191L124.737 25.7991H122.137L119.945 23.428C119.366 23.5898 118.767 23.6686 118.165 23.6621C116.667 23.6345 115.228 23.0708 114.11 22.0733C112.991 21.0759 112.268 19.7106 112.07 18.2251C111.872 16.7397 112.212 15.2325 113.03 13.9768C113.848 12.7212 115.089 11.8003 116.528 11.3812C117.967 10.962 119.508 11.0724 120.873 11.6923C122.237 12.3122 123.334 13.4006 123.965 14.76C124.595 16.1194 124.718 17.6599 124.31 19.1019C123.903 20.544 122.992 21.7921 121.742 22.62L121.737 22.6191ZM118.157 21.8811C120.638 21.8811 122.434 20.086 122.434 17.264C122.434 14.442 120.634 12.6831 118.157 12.6831C115.68 12.6831 113.881 14.444 113.881 17.264C113.881 20.084 115.681 21.8811 118.157 21.8811Z" fill="#1C1C1C"/>
<path d="M127.485 11.048H129.533V19.008C129.533 19.7587 129.832 20.4787 130.362 21.0095C130.893 21.5403 131.613 21.8385 132.364 21.8385C133.115 21.8385 133.834 21.5403 134.365 21.0095C134.896 20.4787 135.194 19.7587 135.194 19.008V11.048H137.245V18.971C137.245 22.152 134.945 23.662 132.345 23.662C129.72 23.662 127.493 22.153 127.493 18.971L127.485 11.048Z" fill="#1C1C1C"/>
<path d="M148.322 20.984H143.094L142.194 23.535H140.062L144.535 11.03H146.906L151.381 23.535H149.222L148.322 20.984ZM145.722 13.51L143.674 19.31H147.752L145.722 13.51Z" fill="#1C1C1C"/>
<path d="M158.529 11.048C161.493 11.048 162.948 12.755 162.948 14.785C162.968 15.627 162.688 16.4487 162.158 17.1035C161.628 17.7582 160.883 18.2036 160.056 18.36L163.146 23.536H160.703L157.829 18.542H156.264V23.536H154.216V11.048H158.529ZM158.529 12.719H156.264V16.907H158.529C160.129 16.907 160.847 16.027 160.847 14.785C160.847 13.529 160.128 12.719 158.529 12.719Z" fill="#1C1C1C"/>
<path d="M173.368 12.701H168.516V16.368H172.829V18.037H168.516V21.865H173.368V23.536H166.468V11.03H173.368V12.701Z" fill="#1C1C1C"/>
<path d="M183.843 22.7111H186.695V23.3611H183.045V17.342H183.845L183.843 22.7111Z" fill="#1C1C1C"/>
<path d="M192.697 21.786H190.175L189.609 23.3611H188.79L191.09 17.342H191.784L194.084 23.3611H193.27L192.697 21.786ZM190.415 21.1381H192.462L191.436 18.321L190.415 21.1381Z" fill="#1C1C1C"/>
<path d="M196.589 23.361V17.342H198.557C199.08 17.3034 199.6 17.4464 200.03 17.747C200.199 17.8952 200.332 18.0807 200.418 18.2889C200.504 18.4971 200.541 18.7224 200.525 18.947C200.529 19.2153 200.444 19.4773 200.285 19.693C200.116 19.9152 199.89 20.0879 199.632 20.193C199.94 20.2727 200.212 20.4559 200.402 20.712C200.594 20.9768 200.693 21.2972 200.685 21.624C200.697 21.862 200.656 22.0997 200.566 22.32C200.475 22.5403 200.336 22.7377 200.16 22.898C199.739 23.23 199.211 23.3945 198.676 23.36L196.589 23.361ZM197.382 19.909H198.582C198.882 19.9251 199.178 19.8324 199.415 19.648C199.518 19.5619 199.599 19.4533 199.654 19.3305C199.708 19.2077 199.733 19.0741 199.727 18.94C199.739 18.8053 199.719 18.6696 199.669 18.5439C199.619 18.4183 199.54 18.3063 199.438 18.217C199.177 18.0475 198.867 17.9681 198.557 17.991H197.383L197.382 19.909ZM197.382 20.545V22.711H198.693C199.01 22.7287 199.321 22.6262 199.566 22.424C199.674 22.3238 199.759 22.201 199.815 22.0643C199.87 21.9276 199.895 21.7804 199.888 21.633C199.888 20.907 199.494 20.544 198.705 20.544L197.382 20.545Z" fill="#1C1C1C"/>
<path d="M209.337 22.3061L211.056 17.342H211.924L209.692 23.3611H208.992L206.764 17.342H207.629L209.337 22.3061Z" fill="#1C1C1C"/>
<path d="M215.274 23.3611H214.481V17.342H215.274V23.3611Z" fill="#1C1C1C"/>
<path d="M221.821 20.579H219.213V22.7111H222.243V23.3611H218.419V17.342H222.202V17.9901H219.213V19.9301H221.821V20.579Z" fill="#1C1C1C"/>
<path d="M226.222 21.463L226.338 22.256L226.507 21.5421L227.697 17.342H228.367L229.528 21.5421L229.694 22.269L229.822 21.459L230.757 17.342H231.557L230.098 23.3611H229.375L228.134 18.975L228.04 18.5171L227.94 18.975L226.654 23.3611H225.931L224.476 17.342H225.269L226.222 21.463Z" fill="#1C1C1C"/>
<path d="M237.532 20.579H234.923V22.7111H237.953V23.3611H234.13V17.342H237.912V17.9901H234.923V19.9301H237.532V20.579Z" fill="#1C1C1C"/>
<path d="M242.842 20.926H241.428V23.361H240.628V17.342H242.62C243.18 17.3047 243.735 17.469 244.185 17.805C244.372 17.9734 244.519 18.1821 244.614 18.4155C244.709 18.6488 244.75 18.9006 244.733 19.152C244.742 19.5025 244.637 19.8465 244.433 20.132C244.219 20.419 243.925 20.6361 243.588 20.756L245.002 23.311V23.361H244.151L242.842 20.926ZM241.428 20.278H242.648C242.988 20.2959 243.324 20.1864 243.588 19.971C243.704 19.869 243.795 19.7425 243.856 19.6006C243.916 19.4587 243.944 19.3051 243.938 19.151C243.948 18.9924 243.924 18.8334 243.866 18.6852C243.809 18.5371 243.719 18.4032 243.605 18.293C243.332 18.0787 242.99 17.9719 242.643 17.993H241.427L241.428 20.278Z" fill="#1C1C1C"/>
</svg>
