<svg id="logo_3" xmlns="http://www.w3.org/2000/svg" width="156" height="126" viewBox="0 0 156 126">
  <rect id="Rectangle_1226" data-name="Rectangle 1226" width="156" height="126" fill="none"/>
  <g id="Group_230" data-name="Group 230" transform="translate(-200.442 -417.999)" opacity="0.2">
    <g id="Group_224" data-name="Group 224" transform="translate(236.53 424.999)">
      <path id="Path_100" data-name="Path 100" d="M263.779,438.754h-8.411a1.422,1.422,0,0,1-.836-2.575s5.1-3.694,5.858-4.231a2.308,2.308,0,0,0,1.126-2.121,1.938,1.938,0,0,0-.594-1.463,1.863,1.863,0,0,0-1.408-.517,2.018,2.018,0,0,0-1.79,2.078h-2.846a4.836,4.836,0,0,1,4.49-4.922,4.739,4.739,0,0,1,4.992,4.733,5.085,5.085,0,0,1-2.326,4.538c-.293.206-1.23.88-2.271,1.633h4.017Z" transform="translate(-182.171 -424.999)" fill="#161615"/>
      <g id="Group_223" data-name="Group 223" transform="translate(0 13.913)">
        <path id="Path_101" data-name="Path 101" d="M226.833,478.487l-2.076-7.3,1.039,3.65-1.043-3.65c.312-.087,31.215-9.227,53.118-39.183L284,436.484C260.5,468.628,228.2,478.1,226.833,478.487Z" transform="translate(-214.887 -431.062)" fill="#161615"/>
        <path id="Path_102" data-name="Path 102" d="M287.638,475.062a11.952,11.952,0,0,1-1.631-.11c-8.368-1.126-13.089-10.4-17.655-19.358-3.8-7.473-7.739-15.2-12.657-16.1-9.953-1.828-17.517,4.233-24.2,9.579-3.115,2.5-5.807,4.651-8.525,5.764L220.1,447.8c1.7-.7,4.108-2.621,6.655-4.659,7.155-5.728,16.949-13.575,30.31-11.121,8.61,1.582,13.411,11.009,18.054,20.126,3.675,7.219,7.478,14.684,11.9,15.282,2.916.39,7.045-2.2,11.882-7.505l5.614,5.111C298.384,471.766,292.842,475.062,287.638,475.062Z" transform="translate(-220.101 -431.559)" fill="#161615"/>
      </g>
    </g>
    <g id="Group_229" data-name="Group 229" transform="translate(205.442 500.968)">
      <g id="Group_226" data-name="Group 226">
        <g id="Group_225" data-name="Group 225">
          <path id="Path_103" data-name="Path 103" d="M213.723,460.821a7.732,7.732,0,0,1,7.537,4.876h-3.2a4.53,4.53,0,0,0-4.339-2.543c-3.219,0-5.552,2.286-5.552,5.949s2.333,5.974,5.552,5.974a4.53,4.53,0,0,0,4.339-2.543h3.2a7.712,7.712,0,0,1-7.537,4.852,8.283,8.283,0,0,1,0-16.565Z" transform="translate(-205.442 -460.821)" fill="#161615"/>
          <path id="Path_104" data-name="Path 104" d="M225.2,470.041h-7.63v7.094h-2.659V460.92h2.659v6.952h7.63V460.92h2.659v16.215H225.2Z" transform="translate(-194.829 -460.71)" fill="#161615"/>
          <path id="Path_105" data-name="Path 105" d="M223.217,460.92h2.659v16.215h-2.659Z" transform="translate(-185.521 -460.71)" fill="#161615"/>
          <path id="Path_106" data-name="Path 106" d="M235.635,477.409c-3.245,0-5.741-1.775-5.741-4.642h2.848a2.6,2.6,0,0,0,2.893,2.4c1.866,0,2.916-1,2.916-2.38,0-3.921-8.61-1.378-8.61-7.35,0-2.846,2.263-4.619,5.578-4.619,3.1,0,5.3,1.633,5.529,4.409h-2.939a2.537,2.537,0,0,0-2.729-2.146c-1.54-.047-2.729.7-2.729,2.263,0,3.662,8.585,1.376,8.585,7.3C241.234,475.077,239.251,477.409,235.635,477.409Z" transform="translate(-178.038 -460.821)" fill="#161615"/>
          <path id="Path_107" data-name="Path 107" d="M249.783,476.056l3.9,4.129H250.3l-2.846-3.079a8.263,8.263,0,0,1-2.312.3,8.136,8.136,0,1,1,4.644-1.353Zm-4.644-.959c3.221,0,5.554-2.331,5.554-6s-2.333-5.949-5.554-5.949-5.552,2.286-5.552,5.949S241.919,475.1,245.138,475.1Z" transform="translate(-170.234 -460.821)" fill="#161615"/>
          <path id="Path_108" data-name="Path 108" d="M246.471,460.92h2.659v10.336c0,2.519,1.423,3.709,3.662,3.709,2.265,0,3.688-1.19,3.688-3.709V460.92h2.659v10.288c0,4.131-2.986,6.091-6.369,6.091-3.408,0-6.3-1.96-6.3-6.091Z" transform="translate(-159.459 -460.71)" fill="#161615"/>
          <path id="Path_109" data-name="Path 109" d="M264.9,473.835h-6.788l-1.166,3.313h-2.776l5.809-16.239h3.079l5.811,16.239h-2.8Zm-3.383-9.7-2.659,7.533h5.3Z" transform="translate(-150.83 -460.722)" fill="#161615"/>
          <path id="Path_110" data-name="Path 110" d="M268.438,460.92c3.849,0,5.739,2.216,5.739,4.852a4.613,4.613,0,0,1-3.756,4.642l4.012,6.721H271.26l-3.732-6.485H265.5v6.485h-2.657V460.92Zm0,2.169H265.5v5.438h2.941c2.076,0,3.009-1.143,3.009-2.755C271.447,464.139,270.514,463.089,268.438,463.089Z" transform="translate(-141.115 -460.71)" fill="#161615"/>
          <path id="Path_111" data-name="Path 111" d="M279.3,463.079H273v4.761h5.6v2.167H273v4.971h6.3v2.17h-8.958V460.909H279.3Z" transform="translate(-132.707 -460.722)" fill="#161615"/>
        </g>
      </g>
      <g id="Group_228" data-name="Group 228" transform="translate(18.885 25.818)">
        <g id="Group_227" data-name="Group 227">
          <path id="Path_112" data-name="Path 112" d="M215.747,482.409h5v1.139h-6.4V473h1.4Z" transform="translate(-214.347 -472.995)" fill="#161615"/>
          <path id="Path_113" data-name="Path 113" d="M225.947,480.787h-4.422l-.993,2.761H219.1L223.126,473h1.217l4.038,10.553h-1.427Zm-4-1.137h3.588l-1.8-4.939Z" transform="translate(-209.024 -472.995)" fill="#161615"/>
          <path id="Path_114" data-name="Path 114" d="M225.545,483.548V473H229a3.993,3.993,0,0,1,2.583.71,2.557,2.557,0,0,1,.867,2.1,2.148,2.148,0,0,1-.42,1.308,2.732,2.732,0,0,1-1.145.88,2.439,2.439,0,0,1,1.351.91,2.613,2.613,0,0,1,.5,1.6,2.823,2.823,0,0,1-.92,2.233,3.805,3.805,0,0,1-2.6.81Zm1.391-6.053h2.1a2.2,2.2,0,0,0,1.461-.458,1.536,1.536,0,0,0,.545-1.241,1.508,1.508,0,0,0-.507-1.268,2.5,2.5,0,0,0-1.544-.4h-2.059Zm0,1.116v3.8h2.3a2.219,2.219,0,0,0,1.533-.5,1.773,1.773,0,0,0,.562-1.387q0-1.909-2.074-1.909Z" transform="translate(-201.797 -472.995)" fill="#161615"/>
          <path id="Path_115" data-name="Path 115" d="M238.471,481.7l3.016-8.7h1.521l-3.913,10.553h-1.232L233.954,473h1.516Z" transform="translate(-192.373 -472.995)" fill="#161615"/>
          <path id="Path_116" data-name="Path 116" d="M241.729,483.548h-1.391V473h1.391Z" transform="translate(-185.218 -472.995)" fill="#161615"/>
          <path id="Path_117" data-name="Path 117" d="M249.559,478.67h-4.572v3.739H250.3v1.139h-6.706V473h6.634v1.137h-5.24v3.4h4.572Z" transform="translate(-181.57 -472.995)" fill="#161615"/>
          <path id="Path_118" data-name="Path 118" d="M251.661,480.22l.2,1.391.3-1.251L254.248,473h1.175l2.036,7.365.291,1.275.225-1.421L259.614,473h1.4l-2.558,10.553h-1.268l-2.176-7.692-.165-.8-.168.8-2.254,7.692h-1.268L248.6,473h1.391Z" transform="translate(-175.955 -472.995)" fill="#161615"/>
          <path id="Path_119" data-name="Path 119" d="M262.549,478.67h-4.574v3.739h5.312v1.139h-6.7V473h6.631v1.137h-5.24v3.4h4.574Z" transform="translate(-167.012 -472.995)" fill="#161615"/>
          <path id="Path_120" data-name="Path 120" d="M265.835,479.279h-2.479v4.269h-1.4V473h3.493a4.128,4.128,0,0,1,2.744.812,2.918,2.918,0,0,1,.961,2.363,2.834,2.834,0,0,1-.534,1.718,3.177,3.177,0,0,1-1.48,1.094l2.477,4.479v.087h-1.493Zm-2.479-1.137h2.14a2.41,2.41,0,0,0,1.648-.539,1.815,1.815,0,0,0,.613-1.438,1.916,1.916,0,0,0-.583-1.5,2.483,2.483,0,0,0-1.686-.53h-2.131Z" transform="translate(-160.988 -472.995)" fill="#161615"/>
        </g>
      </g>
    </g>
  </g>
</svg>
